<?xml version="1.0" standalone="no"?>
<!DOCTYPE svg PUBLIC "-//W3C//DTD SVG 20010904//EN"
 "http://www.w3.org/TR/2001/REC-SVG-20010904/DTD/svg10.dtd">
<svg version="1.0" xmlns="http://www.w3.org/2000/svg"
 width="512.000000pt" height="512.000000pt" viewBox="0 0 512.000000 512.000000"
 preserveAspectRatio="xMidYMid meet">

<g transform="translate(0.000000,512.000000) scale(0.100000,-0.100000)"
fill="#000000" stroke="none">
<path d="M2481 3825 c-60 -51 -94 -198 -111 -478 -8 -144 -13 -177 -33 -220
-31 -66 -105 -139 -182 -178 l-60 -30 -1013 -73 c-556 -40 -1014 -75 -1017
-78 -3 -2 0 -55 7 -118 l11 -113 331 6 c182 4 634 10 1004 14 l672 6 0 -646 0
-647 23 0 c12 0 115 13 229 29 l207 29 203 -29 c112 -16 213 -29 226 -29 l22
0 0 645 0 645 258 0 c141 0 592 -5 1001 -11 409 -5 745 -8 748 -6 8 9 26 217
19 224 -3 3 -462 39 -1019 79 -1009 73 -1012 73 -1064 100 -98 49 -176 132
-201 214 -6 19 -16 112 -22 205 -17 277 -49 408 -112 460 -39 33 -87 33 -127
0z m119 -25 c54 -57 73 -148 95 -433 15 -211 25 -249 81 -323 37 -48 138 -118
199 -138 36 -11 320 -35 1030 -86 539 -39 983 -70 988 -70 9 0 9 -57 0 -129
l-6 -54 -666 6 c-366 4 -818 10 -1003 14 l-338 6 0 -646 0 -647 -21 0 c-12 0
-109 12 -216 26 l-195 26 -197 -26 c-108 -14 -204 -26 -213 -26 -17 0 -18 37
-18 647 l0 646 -337 -6 c-186 -4 -640 -10 -1009 -14 l-671 -6 -7 87 c-4 49 -6
89 -4 91 2 2 448 35 993 75 545 39 1007 76 1028 82 59 18 156 88 204 146 57
70 70 122 83 335 12 196 22 266 51 343 38 101 97 130 149 74z"/>
<path d="M2505 3358 c-40 -22 -65 -52 -71 -85 -13 -71 41 -133 116 -133 57 0
110 50 110 104 0 51 -23 90 -64 110 -39 19 -63 20 -91 4z m98 -38 c54 -43 39
-128 -26 -149 -61 -21 -117 18 -117 81 0 76 83 115 143 68z"/>
<path d="M1885 2858 c-10 -25 -1 -203 10 -201 13 4 19 193 6 206 -7 7 -12 5
-16 -5z"/>
<path d="M2040 2755 c0 -63 4 -105 10 -105 6 0 10 42 10 105 0 63 -4 105 -10
105 -6 0 -10 -42 -10 -105z"/>
<path d="M3032 2758 c4 -133 22 -132 26 2 2 85 0 100 -13 100 -13 0 -15 -15
-13 -102z"/>
<path d="M3190 2755 c0 -63 4 -105 10 -105 6 0 10 42 10 105 0 63 -4 105 -10
105 -6 0 -10 -42 -10 -105z"/>
<path d="M2132 2073 l3 -478 195 -27 195 -28 218 27 217 27 0 479 0 478 -22
-7 c-13 -4 -80 -35 -150 -70 -126 -63 -128 -65 -128 -98 0 -65 -2 -66 -115
-66 -113 0 -115 1 -115 72 0 26 -11 33 -140 98 -77 38 -144 70 -150 70 -7 0
-9 -157 -8 -477z m158 379 c97 -48 115 -61 118 -82 1 -14 5 -40 8 -57 l5 -33
124 0 c137 0 127 -5 140 75 6 41 7 41 121 98 63 31 116 57 119 57 3 0 4 -201
3 -447 l-3 -447 -165 -23 c-91 -12 -185 -22 -210 -23 -40 0 -312 33 -367 45
l-23 5 0 445 c0 245 3 445 8 444 4 0 59 -26 122 -57z"/>
<path d="M2456 2245 c5 -12 -12 -15 -97 -17 -71 -2 -104 -7 -107 -15 -3 -10
22 -13 101 -13 l105 0 19 -37 c36 -74 89 -74 126 0 l19 37 105 0 c79 0 104 3
101 13 -3 8 -36 13 -106 15 -82 2 -102 6 -102 17 0 12 -17 15 -85 15 -70 0
-83 -2 -79 -15z m108 -30 c-4 -10 0 -15 11 -15 20 0 12 -38 -13 -57 -23 -19
-39 -16 -56 9 -20 29 -20 48 0 48 10 0 14 6 10 15 -4 11 2 15 24 15 22 0 28
-4 24 -15z"/>
</g>
</svg>
