<?xml version="1.0" standalone="no"?>
<!DOCTYPE svg PUBLIC "-//W3C//DTD SVG 20010904//EN"
 "http://www.w3.org/TR/2001/REC-SVG-20010904/DTD/svg10.dtd">
<svg version="1.0" xmlns="http://www.w3.org/2000/svg"
 width="2293.000000pt" height="2648.000000pt" viewBox="0 0 2293.000000 2648.000000"
 preserveAspectRatio="xMidYMid meet">

<g transform="translate(0.000000,2648.000000) scale(0.100000,-0.100000)"
fill="#000000" stroke="none">
<path d="M595 25928 c-3 -7 -4 -4909 -3 -10893 l3 -10880 3000 -3 c3014 -3
3093 -2 3115 29 3 4 83 44 179 88 793 370 1548 954 2119 1641 321 387 573 774
797 1225 154 310 235 503 335 805 404 1210 433 2478 85 3710 -386 1364 -1227
2557 -2386 3385 -293 209 -538 355 -884 525 -818 402 -1659 610 -2582 638
l-228 7 -3 1203 -2 1202 67 0 c259 0 875 -74 1211 -144 l72 -16 103 41 c670
267 1276 738 1702 1324 630 866 872 1915 689 2985 -246 1441 -1324 2647 -2738
3062 -94 27 -191 55 -216 61 -70 17 -4429 21 -4435 5z"/>
<path d="M7753 25830 c651 -679 1090 -1581 1221 -2505 36 -254 41 -336 41
-660 0 -332 -6 -414 -45 -680 -114 -770 -431 -1521 -901 -2130 -364 -473 -844
-893 -1349 -1182 -160 -91 -421 -219 -574 -281 -66 -26 -121 -53 -123 -59 -3
-7 32 -22 84 -38 1892 -566 3502 -1815 4515 -3505 557 -929 909 -1943 1052
-3030 51 -388 61 -544 60 -1020 0 -463 -9 -620 -55 -980 -284 -2228 -1495
-4216 -3349 -5497 -63 -44 -116 -87 -118 -96 -3 -16 469 -17 7080 -15 l7083 3
0 10890 0 10890 -7364 3 -7363 2 105 -110z"/>
<path d="M590 1990 l0 -1360 1073 0 c625 0 1103 5 1146 10 269 35 458 147 524
312 43 108 49 174 45 455 -4 230 -7 265 -26 324 -50 151 -162 268 -282 294
l-34 8 54 17 c30 9 69 24 86 33 48 25 111 94 138 150 42 90 48 150 44 452 -4
260 -6 285 -27 345 -65 187 -203 283 -446 310 -55 6 -523 10 -1192 10 l-1103
0 0 -1360z m2145 887 c68 -29 70 -36 73 -273 3 -199 2 -214 -17 -253 -42 -81
12 -76 -868 -79 l-783 -3 0 316 0 316 778 -3 c715 -3 780 -5 817 -21z m5
-1077 c80 -44 85 -66 85 -340 0 -275 -7 -304 -79 -343 -41 -22 -42 -22 -823
-25 l-783 -3 0 371 0 371 778 -3 777 -3 45 -25z"/>
<path d="M4782 1996 c-397 -744 -722 -1356 -722 -1360 0 -3 115 -5 256 -4
l257 3 165 318 165 317 856 -2 855 -3 165 -317 165 -318 284 0 284 0 -29 52
c-16 29 -348 641 -738 1361 l-709 1307 -266 0 -266 0 -722 -1354z m1307 324
l320 -605 -325 -3 c-178 -1 -470 -1 -649 0 l-324 3 322 612 c177 336 325 608
329 605 3 -4 151 -279 327 -612z"/>
<path d="M7820 3343 c1 -5 298 -352 660 -773 l659 -765 1 -587 0 -588 270 0
270 0 0 589 0 589 659 768 660 769 -297 3 c-163 1 -302 0 -308 -2 -5 -2 -223
-263 -484 -580 -260 -317 -476 -576 -480 -576 -3 0 -228 261 -500 579 l-495
579 -307 1 c-170 1 -308 -2 -308 -6z"/>
<path d="M11810 1990 l0 -1360 270 0 270 0 2 586 3 585 835 -585 835 -586 400
0 c222 0 395 4 390 9 -6 4 -471 318 -1035 696 -564 378 -1031 693 -1038 699
-9 9 195 154 919 651 512 352 939 645 948 652 13 10 -58 12 -339 13 l-355 0
-780 -560 -780 -559 -3 559 -2 560 -270 0 -270 0 0 -1360z"/>
<path d="M16511 3333 c-72 -138 -1391 -2613 -1412 -2651 l-29 -52 260 2 261 3
164 315 164 315 856 0 857 0 163 -315 164 -315 285 -3 285 -2 -39 72 c-22 40
-354 652 -737 1360 l-698 1288 -267 0 c-244 0 -268 -1 -277 -17z m594 -1010
l322 -608 -645 -3 c-355 -1 -647 -1 -649 1 -2 2 142 279 319 615 177 336 324
609 327 607 2 -3 149 -278 326 -612z"/>
<path d="M19350 1990 l0 -1360 270 0 270 0 0 510 0 510 348 0 347 0 530 -510
530 -509 365 -1 365 0 -28 23 c-15 12 -283 240 -595 507 l-568 485 241 6 c132
3 256 10 275 14 194 41 294 111 360 250 15 33 33 85 40 115 17 78 25 651 12
815 -21 243 -88 362 -247 436 -139 65 -83 63 -1357 66 l-1158 4 0 -1361z
m2128 896 c35 -15 48 -29 65 -65 20 -43 22 -62 22 -321 0 -251 -2 -279 -19
-319 -14 -30 -32 -49 -60 -64 -41 -22 -42 -22 -818 -25 l-778 -3 0 411 0 411
773 -3 c733 -3 774 -4 815 -22z"/>
</g>
</svg>
