<?xml version="1.0" encoding="UTF-8"?>
<svg width="1200pt" height="1200pt" version="1.1" viewBox="0 0 1200 1200" xmlns="http://www.w3.org/2000/svg">
 <path d="m756.71 618.51c15.566-5.5625 28.449-10.367 36.223-13.656 7.1562-3.0195 13.086-6.0625 25.387-12.359 16.91-8.6641 23.141-12.723 29.016-18.895 6.0742-6.3945 16.227-17.086 12.855-29.664-3.418-12.656-21.883-18.223-36.785-20.668-31.57-5.1914-81.938 4.8516-117.09 12.855-17.145 3.9062-66.727 16.332-113.23 28.25l-419.84-109.22-3.0742-0.80469-50.168 25.09 335.66 126.88-67.051 18.711-44.613-60.258-26.621 9.0781-38.395 10.973-1.8281 2.7422-0.30078 0.10156 0.11719 0.17188-71.496 107.24 85.379-24.879 0.17188-0.35938 34.766-9.6992 43.078 63.801 77.242-21.254-0.019531-0.027344c14.473-3.9648 28.426-7.7031 42.242-11.371 16.457-4.3867 52.746-14.168 52.746-14.168 2.1172 0.60547 1.6406 0.40234 3.9961 0.9375l4.6016 11.508c-6.625 4.5898-10.988 12.223-10.988 20.871 0 14 11.398 25.387 25.398 25.387s25.398-11.387 25.398-25.387c0-13.281-10.297-24.098-23.305-25.188l-1.9961-4.9922 0.375-0.003907c12.797-0.35156 22.707-3.9336 27.473-5.6562l28.23-9.5117c3.4492-1.1523 7.0508-2.3594 10.77-3.6055l18.242 40.691c-4.6875 4.6133-7.6172 11.008-7.6172 18.086 0 14 11.398 25.387 25.398 25.387s25.387-11.387 25.387-25.387-11.387-25.398-25.387-25.398c-0.82031 0-1.5938 0.16797-2.3945 0.24219l-15.613-34.828 352.2 31.5 1.7852 0.16406 76.969-26.379-323.29-47.051zm-81.203 101.75c0 4.6641-3.793 8.457-8.457 8.457s-8.4648-3.793-8.4648-8.457 3.8047-8.4648 8.4648-8.4648c4.6641 0 8.457 3.8047 8.457 8.4648zm-503.44-247.93 387.12 100.71-81.688 23.438-315.32-119.21 9.8867-4.9375zm199.08 157.57-38.156 10.648-16.234-24.043 14.18-29.391 6.8164-2.3242 33.395 45.113zm-125.83 35.922 41.879-62.824 2.4023-3.6016 19.27-5.5117-0.44141 0.91016-2.6406 5.4727-8.5156 17.652-18.176 37.672-4.0117 1.1211 0.11328 0.41016-29.879 8.707zm55.504-16.301 7.4141-15.367 7.5547 11.191-14.973 4.1797zm75.27 54.859-33.113-49.039 38.953-10.871 35.863 48.445zm107.88-29.465c-15.887 4.2266-31.816 8.4805-48.695 13.141l-35.879-48.461 77.363-21.586c0.019531 3.4531 0.39844 7.0586 1.4336 10.938 5.1211 19.082 22.027 30.871 35.984 37.875-10.207 2.7578-20.262 5.4492-30.211 8.0938zm88.574 35.52c0 4.6641-3.8047 8.457-8.4648 8.457-4.6641 0-8.4648-3.793-8.4648-8.457 0-4.6641 3.8047-8.4648 8.4648-8.4648 4.6641 0 8.4648 3.8047 8.4648 8.4648zm13.715-51.766c-4.2344 1.5312-12.105 4.3867-22.148 4.6523-1.3867 0.050781-3.8828-0.066406-6.8516-0.35938l-11.5-28.754-15.719 6.2852 7.0938 17.73c-0.17188-0.0625-0.30859-0.085938-0.48047-0.14844-9.0938-3.3633-36.766-13.594-42.098-33.512-0.55078-2.0273-2.2031-8.1914 0.33984-12.688 0.97266-1.7188 2.4922-2.9492 4.0625-3.9375l61.957-17.766c53.543-13.918 128.16-32.758 149.16-37.539 21.52-4.8945 78.621-17.926 110.6-12.656 14.484 2.3828 22.27 6.7227 23.16 8.3555 0.91406 3.4062-6.1172 10.812-8.7852 13.613-3.8594 4.0586-8.1133 7.1094-24.914 15.719-11.453 5.8633-17.207 8.8086-23.789 11.598-20.758 8.7734-80.977 29.352-130.68 46.09l-59.988 20.148-9.4102 3.168zm414.7 16.074-322.68-28.859 46.555-14.895 283.45 41.25z"/>
</svg>
